# Blender v2.79 (sub 0) OBJ File: 'muro_pietra.blend'
# www.blender.org
o Cube.001
v -0.375000 -0.104167 0.416667
v -0.375000 0.104167 0.416667
v -0.375000 -0.104167 -0.416667
v -0.375000 0.104167 -0.416667
v 0.375000 -0.104167 0.416667
v 0.375000 0.104167 0.416667
v 0.375000 -0.104167 -0.416667
v 0.375000 0.104167 -0.416667
v 1.499999 -3.639105 50.000000
v 1.499999 21.360886 49.999992
v -1.499999 21.360882 49.999992
v -1.499999 -3.639111 50.000000
v 1.500000 -3.639102 -49.999992
v 1.499998 21.360889 -50.000000
v -1.500000 21.360878 -50.000000
v -1.499999 -3.639108 -49.999992
vt 0.000000 0.000000
vt 1.000000 1.000000
vt 0.000000 1.000000
vt 0.000000 0.000000
vt 1.000000 1.000000
vt 0.000000 1.000000
vt 1.000000 0.000000
vt 0.000000 1.000000
vt 1.000000 0.000000
vt 0.000000 1.000000
vt 0.000000 0.000000
vt 0.000000 1.000000
vt 1.000000 0.000000
vt 1.000000 0.000000
vt 0.000000 1.000000
vt 1.000000 0.000000
vt 1.000000 0.000000
vt 1.000000 1.000000
vt 0.000000 0.000000
vt 1.000000 1.000000
vt 0.000000 0.000000
vt 0.000000 0.000000
vt 0.000000 0.000000
vt 0.000000 0.000000
vt 0.000000 0.000000
vt 0.000000 0.000000
vt 0.000000 0.000000
vt 0.000000 0.000000
vn 0.0000 0.0000 1.0000
vn 0.0000 -0.0000 -1.0000
vn 1.0000 0.0000 0.0000
vn -0.0000 1.0000 0.0000
vn -1.0000 -0.0000 0.0000
vn 0.0000 -1.0000 -0.0000
s off
f 9/1/1 11/2/1 12/3/1
f 13/4/2 15/5/2 14/6/2
f 13/7/3 10/8/3 9/1/3
f 14/9/4 11/10/4 10/11/4
f 15/12/5 12/13/5 11/2/5
f 9/14/6 16/15/6 13/4/6
f 9/1/1 10/16/1 11/2/1
f 13/4/2 16/17/2 15/5/2
f 13/7/3 14/18/3 10/8/3
f 14/9/4 15/5/4 11/10/4
f 15/12/5 16/19/5 12/13/5
f 9/14/6 12/20/6 16/15/6
f 2/21/5 3/22/5 1/23/5
f 4/24/2 7/25/2 3/22/2
f 8/26/3 5/27/3 7/25/3
f 6/28/1 1/23/1 5/27/1
f 7/25/6 1/23/6 3/22/6
f 4/24/4 6/28/4 8/26/4
f 2/21/5 4/24/5 3/22/5
f 4/24/2 8/26/2 7/25/2
f 8/26/3 6/28/3 5/27/3
f 6/28/1 2/21/1 1/23/1
f 7/25/6 5/27/6 1/23/6
f 4/24/4 2/21/4 6/28/4
